<?xml version="1.0" encoding="UTF-8" standalone="no"?>
<svg xmlns="http://www.w3.org/2000/svg" xmlns:xlink="http://www.w3.org/1999/xlink" contentScriptType="application/ecmascript" contentStyleType="text/css" height="870px" preserveAspectRatio="none" style="width:478px;height:870px;" version="1.1" viewBox="0 0 478 870" width="478px" zoomAndPan="magnify"><defs><filter height="300%" id="f5wvjlaidpa31" width="300%" x="-1" y="-1"><feGaussianBlur result="blurOut" stdDeviation="2.0"/><feColorMatrix in="blurOut" result="blurOut2" type="matrix" values="0 0 0 0 0 0 0 0 0 0 0 0 0 0 0 0 0 0 .4 0"/><feOffset dx="4.0" dy="4.0" in="blurOut2" result="blurOut3"/><feBlend in="SourceGraphic" in2="blurOut3" mode="normal"/></filter></defs><g><!--class Airport--><rect fill="#FEFECE" filter="url(#f5wvjlaidpa31)" height="227.2656" id="Airport" style="stroke: #A80036; stroke-width: 1.5;" width="351" x="6" y="8"/><ellipse cx="156.25" cy="24" fill="#ADD1B2" rx="11" ry="11" style="stroke: #A80036; stroke-width: 1.0;"/><path d="M159.2188,29.6406 Q158.6406,29.9375 158,30.0859 Q157.3594,30.2344 156.6563,30.2344 Q154.1563,30.2344 152.8359,28.5859 Q151.5156,26.9375 151.5156,23.8125 Q151.5156,20.6875 152.8359,19.0313 Q154.1563,17.375 156.6563,17.375 Q157.3594,17.375 158.0078,17.5313 Q158.6563,17.6875 159.2188,17.9844 L159.2188,20.7031 Q158.5938,20.125 158,19.8516 Q157.4063,19.5781 156.7813,19.5781 Q155.4375,19.5781 154.75,20.6484 Q154.0625,21.7188 154.0625,23.8125 Q154.0625,25.9063 154.75,26.9766 Q155.4375,28.0469 156.7813,28.0469 Q157.4063,28.0469 158,27.7734 Q158.5938,27.5 159.2188,26.9219 L159.2188,29.6406 Z "/><text fill="#000000" font-family="sans-serif" font-size="12" lengthAdjust="spacingAndGlyphs" textLength="42" x="176.75" y="28.1543">Airport</text><line style="stroke: #A80036; stroke-width: 1.5;" x1="7" x2="356" y1="40" y2="40"/><text fill="#000000" font-family="sans-serif" font-size="11" lengthAdjust="spacingAndGlyphs" textLength="65" x="12" y="54.2104">String code</text><text fill="#000000" font-family="sans-serif" font-size="11" lengthAdjust="spacingAndGlyphs" textLength="71" x="12" y="67.0151">String Name</text><text fill="#000000" font-family="sans-serif" font-size="11" lengthAdjust="spacingAndGlyphs" textLength="160" x="12" y="79.8198">ArrayList&lt;Hangar&gt; hangars</text><text fill="#000000" font-family="sans-serif" font-size="11" lengthAdjust="spacingAndGlyphs" textLength="259" x="12" y="92.6245">HashMap&lt;Plane,Hangar&gt;: planeAssignments</text><text fill="#000000" font-family="sans-serif" font-size="11" lengthAdjust="spacingAndGlyphs" textLength="238" x="12" y="105.4292">HashMap&lt;Passenger,Flight&gt;: flightRoster</text><text fill="#000000" font-family="sans-serif" font-size="11" lengthAdjust="spacingAndGlyphs" textLength="145" x="12" y="118.2339">ArrayList&lt;Flight&gt; : flights</text><line style="stroke: #A80036; stroke-width: 1.5;" x1="7" x2="356" y1="124.8281" y2="124.8281"/><text fill="#000000" font-family="sans-serif" font-size="11" lengthAdjust="spacingAndGlyphs" textLength="110" x="26" y="139.0386">addHangar(hangar)</text><text fill="#000000" font-family="sans-serif" font-size="11" lengthAdjust="spacingAndGlyphs" textLength="87" x="26" y="151.8433">addFlight(flight)</text><text fill="#000000" font-family="sans-serif" font-size="11" lengthAdjust="spacingAndGlyphs" textLength="256" x="26" y="164.6479">sellFlight(flight,ArrayList&lt;passenger&gt; group)</text><text fill="#000000" font-family="sans-serif" font-size="11" lengthAdjust="spacingAndGlyphs" textLength="211" x="26" y="177.4526">assignPlaneToHangar(plane, hangar)</text><text fill="#000000" font-family="sans-serif" font-size="11" lengthAdjust="spacingAndGlyphs" textLength="192" x="26" y="190.2573">getPassengerFlight(string) : Flight</text><rect fill="#F24D5C" height="6" style="stroke: #C82930; stroke-width: 1.0;" width="6" x="14" y="197.7539"/><text fill="#000000" font-family="sans-serif" font-size="11" lengthAdjust="spacingAndGlyphs" textLength="325" x="26" y="203.062">assignPassengersToFlight(ArrayList&lt;passenger&gt;, Flight)</text><rect fill="#F24D5C" height="6" style="stroke: #C82930; stroke-width: 1.0;" width="6" x="14" y="210.5586"/><text fill="#000000" font-family="sans-serif" font-size="11" lengthAdjust="spacingAndGlyphs" textLength="201" x="26" y="215.8667">getHangarByName(String) : Hangar</text><rect fill="#F24D5C" height="6" style="stroke: #C82930; stroke-width: 1.0;" width="6" x="14" y="223.3633"/><text fill="#000000" font-family="sans-serif" font-size="11" lengthAdjust="spacingAndGlyphs" textLength="221" x="26" y="228.6714">getFlightByFlightNumber(String) : Flight</text><!--class Hangar--><rect fill="#FEFECE" filter="url(#f5wvjlaidpa31)" height="60.8047" id="Hangar" style="stroke: #A80036; stroke-width: 1.5;" width="86" x="76.5" y="324.5"/><ellipse cx="95.1" cy="340.5" fill="#ADD1B2" rx="11" ry="11" style="stroke: #A80036; stroke-width: 1.0;"/><path d="M98.0688,346.1406 Q97.4906,346.4375 96.85,346.5859 Q96.2094,346.7344 95.5063,346.7344 Q93.0063,346.7344 91.6859,345.0859 Q90.3656,343.4375 90.3656,340.3125 Q90.3656,337.1875 91.6859,335.5313 Q93.0063,333.875 95.5063,333.875 Q96.2094,333.875 96.8578,334.0313 Q97.5063,334.1875 98.0688,334.4844 L98.0688,337.2031 Q97.4438,336.625 96.85,336.3516 Q96.2563,336.0781 95.6313,336.0781 Q94.2875,336.0781 93.6,337.1484 Q92.9125,338.2188 92.9125,340.3125 Q92.9125,342.4063 93.6,343.4766 Q94.2875,344.5469 95.6313,344.5469 Q96.2563,344.5469 96.85,344.2734 Q97.4438,344 98.0688,343.4219 L98.0688,346.1406 Z "/><text fill="#000000" font-family="sans-serif" font-size="12" lengthAdjust="spacingAndGlyphs" textLength="46" x="109.9" y="344.6543">Hangar</text><line style="stroke: #A80036; stroke-width: 1.5;" x1="77.5" x2="161.5" y1="356.5" y2="356.5"/><text fill="#000000" font-family="sans-serif" font-size="11" lengthAdjust="spacingAndGlyphs" textLength="74" x="82.5" y="370.7104">String: name</text><line style="stroke: #A80036; stroke-width: 1.5;" x1="77.5" x2="161.5" y1="377.3047" y2="377.3047"/><!--class AircraftType--><rect fill="#FEFECE" filter="url(#f5wvjlaidpa31)" height="60.8047" id="AircraftType" style="stroke: #A80036; stroke-width: 1.5;" width="106" x="87.5" y="664"/><ellipse cx="102.5" cy="680" fill="#EB937F" rx="11" ry="11" style="stroke: #A80036; stroke-width: 1.0;"/><path d="M106.6094,686 L98.8906,686 L98.8906,673.6094 L106.6094,673.6094 L106.6094,675.7656 L101.3438,675.7656 L101.3438,678.4375 L106.1094,678.4375 L106.1094,680.5938 L101.3438,680.5938 L101.3438,683.8438 L106.6094,683.8438 L106.6094,686 Z "/><text fill="#000000" font-family="sans-serif" font-size="12" lengthAdjust="spacingAndGlyphs" textLength="74" x="116.5" y="684.1543">AircraftType</text><line style="stroke: #A80036; stroke-width: 1.5;" x1="88.5" x2="192.5" y1="696" y2="696"/><text fill="#000000" font-family="sans-serif" font-size="11" lengthAdjust="spacingAndGlyphs" textLength="72" x="93.5" y="710.2104">Int : capacity</text><line style="stroke: #A80036; stroke-width: 1.5;" x1="88.5" x2="192.5" y1="716.8047" y2="716.8047"/><!--class Airline--><rect fill="#FEFECE" filter="url(#f5wvjlaidpa31)" height="73.6094" id="Airline" style="stroke: #A80036; stroke-width: 1.5;" width="90" x="218.5" y="786"/><ellipse cx="242.5" cy="802" fill="#ADD1B2" rx="11" ry="11" style="stroke: #A80036; stroke-width: 1.0;"/><path d="M245.4688,807.6406 Q244.8906,807.9375 244.25,808.0859 Q243.6094,808.2344 242.9063,808.2344 Q240.4063,808.2344 239.0859,806.5859 Q237.7656,804.9375 237.7656,801.8125 Q237.7656,798.6875 239.0859,797.0313 Q240.4063,795.375 242.9063,795.375 Q243.6094,795.375 244.2578,795.5313 Q244.9063,795.6875 245.4688,795.9844 L245.4688,798.7031 Q244.8438,798.125 244.25,797.8516 Q243.6563,797.5781 243.0313,797.5781 Q241.6875,797.5781 241,798.6484 Q240.3125,799.7188 240.3125,801.8125 Q240.3125,803.9063 241,804.9766 Q241.6875,806.0469 243.0313,806.0469 Q243.6563,806.0469 244.25,805.7734 Q244.8438,805.5 245.4688,804.9219 L245.4688,807.6406 Z "/><text fill="#000000" font-family="sans-serif" font-size="12" lengthAdjust="spacingAndGlyphs" textLength="38" x="258.5" y="806.1543">Airline</text><line style="stroke: #A80036; stroke-width: 1.5;" x1="219.5" x2="307.5" y1="818" y2="818"/><text fill="#000000" font-family="sans-serif" font-size="11" lengthAdjust="spacingAndGlyphs" textLength="73" x="224.5" y="832.2104">String : code</text><text fill="#000000" font-family="sans-serif" font-size="11" lengthAdjust="spacingAndGlyphs" textLength="78" x="224.5" y="845.0151">String : name</text><line style="stroke: #A80036; stroke-width: 1.5;" x1="219.5" x2="307.5" y1="851.6094" y2="851.6094"/><!--class Flight--><rect fill="#FEFECE" filter="url(#f5wvjlaidpa31)" height="86.4141" id="Flight" style="stroke: #A80036; stroke-width: 1.5;" width="131" x="198" y="312"/><ellipse cx="242.25" cy="328" fill="#ADD1B2" rx="11" ry="11" style="stroke: #A80036; stroke-width: 1.0;"/><path d="M245.2188,333.6406 Q244.6406,333.9375 244,334.0859 Q243.3594,334.2344 242.6563,334.2344 Q240.1563,334.2344 238.8359,332.5859 Q237.5156,330.9375 237.5156,327.8125 Q237.5156,324.6875 238.8359,323.0313 Q240.1563,321.375 242.6563,321.375 Q243.3594,321.375 244.0078,321.5313 Q244.6563,321.6875 245.2188,321.9844 L245.2188,324.7031 Q244.5938,324.125 244,323.8516 Q243.4063,323.5781 242.7813,323.5781 Q241.4375,323.5781 240.75,324.6484 Q240.0625,325.7188 240.0625,327.8125 Q240.0625,329.9063 240.75,330.9766 Q241.4375,332.0469 242.7813,332.0469 Q243.4063,332.0469 244,331.7734 Q244.5938,331.5 245.2188,330.9219 L245.2188,333.6406 Z "/><text fill="#000000" font-family="sans-serif" font-size="12" lengthAdjust="spacingAndGlyphs" textLength="34" x="262.75" y="332.1543">Flight</text><line style="stroke: #A80036; stroke-width: 1.5;" x1="199" x2="328" y1="344" y2="344"/><text fill="#000000" font-family="sans-serif" font-size="11" lengthAdjust="spacingAndGlyphs" textLength="109" x="204" y="358.2104">String : destination</text><text fill="#000000" font-family="sans-serif" font-size="11" lengthAdjust="spacingAndGlyphs" textLength="119" x="204" y="371.0151">String : flightNumber</text><text fill="#000000" font-family="sans-serif" font-size="11" lengthAdjust="spacingAndGlyphs" textLength="74" x="204" y="383.8198">Plane : plane</text><line style="stroke: #A80036; stroke-width: 1.5;" x1="199" x2="328" y1="390.4141" y2="390.4141"/><!--class Plane--><rect fill="#FEFECE" filter="url(#f5wvjlaidpa31)" height="112.0234" id="Plane" style="stroke: #A80036; stroke-width: 1.5;" width="315" x="106" y="475"/><ellipse cx="241.75" cy="491" fill="#ADD1B2" rx="11" ry="11" style="stroke: #A80036; stroke-width: 1.0;"/><path d="M244.7188,496.6406 Q244.1406,496.9375 243.5,497.0859 Q242.8594,497.2344 242.1563,497.2344 Q239.6563,497.2344 238.3359,495.5859 Q237.0156,493.9375 237.0156,490.8125 Q237.0156,487.6875 238.3359,486.0313 Q239.6563,484.375 242.1563,484.375 Q242.8594,484.375 243.5078,484.5313 Q244.1563,484.6875 244.7188,484.9844 L244.7188,487.7031 Q244.0938,487.125 243.5,486.8516 Q242.9063,486.5781 242.2813,486.5781 Q240.9375,486.5781 240.25,487.6484 Q239.5625,488.7188 239.5625,490.8125 Q239.5625,492.9063 240.25,493.9766 Q240.9375,495.0469 242.2813,495.0469 Q242.9063,495.0469 243.5,494.7734 Q244.0938,494.5 244.7188,493.9219 L244.7188,496.6406 Z "/><text fill="#000000" font-family="sans-serif" font-size="12" lengthAdjust="spacingAndGlyphs" textLength="35" x="262.25" y="495.1543">Plane</text><line style="stroke: #A80036; stroke-width: 1.5;" x1="107" x2="420" y1="507" y2="507"/><text fill="#000000" font-family="sans-serif" font-size="11" lengthAdjust="spacingAndGlyphs" textLength="104" x="112" y="521.2104">AircraftType : type</text><text fill="#000000" font-family="sans-serif" font-size="11" lengthAdjust="spacingAndGlyphs" textLength="82" x="112" y="534.0151">Airline : airline</text><text fill="#000000" font-family="sans-serif" font-size="11" lengthAdjust="spacingAndGlyphs" textLength="209" x="112" y="546.8198">ArrayList&lt;Passenger&gt; : passengers</text><line style="stroke: #A80036; stroke-width: 1.5;" x1="107" x2="420" y1="553.4141" y2="553.4141"/><text fill="#000000" font-family="sans-serif" font-size="11" lengthAdjust="spacingAndGlyphs" textLength="303" x="112" y="567.6245">canAddPassengers(ArrayList&lt;Passenger&gt;) : boolean</text><text fill="#000000" font-family="sans-serif" font-size="11" lengthAdjust="spacingAndGlyphs" textLength="226" x="112" y="580.4292">addPassengers(ArrayList&lt;Passenger&gt;)</text><!--class Passenger--><rect fill="#FEFECE" filter="url(#f5wvjlaidpa31)" height="60.8047" id="Passenger" style="stroke: #A80036; stroke-width: 1.5;" width="99" x="368" y="664"/><ellipse cx="383" cy="680" fill="#ADD1B2" rx="11" ry="11" style="stroke: #A80036; stroke-width: 1.0;"/><path d="M385.9688,685.6406 Q385.3906,685.9375 384.75,686.0859 Q384.1094,686.2344 383.4063,686.2344 Q380.9063,686.2344 379.5859,684.5859 Q378.2656,682.9375 378.2656,679.8125 Q378.2656,676.6875 379.5859,675.0313 Q380.9063,673.375 383.4063,673.375 Q384.1094,673.375 384.7578,673.5313 Q385.4063,673.6875 385.9688,673.9844 L385.9688,676.7031 Q385.3438,676.125 384.75,675.8516 Q384.1563,675.5781 383.5313,675.5781 Q382.1875,675.5781 381.5,676.6484 Q380.8125,677.7188 380.8125,679.8125 Q380.8125,681.9063 381.5,682.9766 Q382.1875,684.0469 383.5313,684.0469 Q384.1563,684.0469 384.75,683.7734 Q385.3438,683.5 385.9688,682.9219 L385.9688,685.6406 Z "/><text fill="#000000" font-family="sans-serif" font-size="12" lengthAdjust="spacingAndGlyphs" textLength="67" x="397" y="684.1543">Passenger</text><line style="stroke: #A80036; stroke-width: 1.5;" x1="369" x2="466" y1="696" y2="696"/><text fill="#000000" font-family="sans-serif" font-size="11" lengthAdjust="spacingAndGlyphs" textLength="78" x="374" y="710.2104">String : name</text><line style="stroke: #A80036; stroke-width: 1.5;" x1="369" x2="466" y1="716.8047" y2="716.8047"/><!--link Airport to Hangar--><path d="M139.994,247.917 C138.411,253.672 136.904,259.387 135.5,265 C130.625,284.494 126.625,306.744 123.844,324.121 " fill="none" id="Airport-Hangar" style="stroke: #A80036; stroke-width: 1.0;"/><polygon fill="#A80036" points="143.567,235.274,138.0859,239.9599,140.3033,246.8216,145.7844,242.1357,143.567,235.274" style="stroke: #A80036; stroke-width: 1.0;"/><text fill="#000000" font-family="sans-serif" font-size="13" lengthAdjust="spacingAndGlyphs" textLength="63" x="136.5" y="278.0669">has many</text><!--link Airport to Flight--><path d="M225.847,247.7 C234.043,270.837 242.058,293.466 248.573,311.858 " fill="none" id="Airport-Flight" style="stroke: #A80036; stroke-width: 1.0;"/><polygon fill="#FFFFFF" points="221.419,235.198,219.6515,242.1891,225.4251,246.5095,227.1926,239.5184,221.419,235.198" style="stroke: #A80036; stroke-width: 1.0;"/><text fill="#000000" font-family="sans-serif" font-size="13" lengthAdjust="spacingAndGlyphs" textLength="63" x="238.5" y="278.0669">has many</text><!--link Flight to Plane--><path d="M263.5,411.33 C263.5,431.597 263.5,454.52 263.5,474.777 " fill="none" id="Flight-Plane" style="stroke: #A80036; stroke-width: 1.0;"/><polygon fill="#FFFFFF" points="263.5,398.121,259.5,404.121,263.5,410.121,267.5,404.121,263.5,398.121" style="stroke: #A80036; stroke-width: 1.0;"/><text fill="#000000" font-family="sans-serif" font-size="13" lengthAdjust="spacingAndGlyphs" textLength="35" x="264.5" y="441.0669">has a</text><!--link Plane to Airline--><path d="M263.5,587.229 C263.5,645.569 263.5,735.873 263.5,785.7697 " fill="none" id="Plane-Airline" style="stroke: #A80036; stroke-width: 1.0; stroke-dasharray: 7.0,7.0;"/><text fill="#000000" font-family="sans-serif" font-size="13" lengthAdjust="spacingAndGlyphs" textLength="67" x="264.5" y="699.0669">belongs to</text><!--link Plane to Passenger--><path d="M325.136,596.638 C347.372,619.957 371.39,645.144 389.359,663.988 " fill="none" id="Plane-Passenger" style="stroke: #A80036; stroke-width: 1.0;"/><polygon fill="#FFFFFF" points="316.067,587.127,317.3127,594.2297,324.3481,595.8116,323.1024,588.7089,316.067,587.127" style="stroke: #A80036; stroke-width: 1.0;"/><text fill="#000000" font-family="sans-serif" font-size="13" lengthAdjust="spacingAndGlyphs" textLength="34" x="359.5" y="630.0669">holds</text><!--link Plane to AircraftType--><path d="M207.804,597.373 C202.544,603.935 197.364,610.554 192.5,617 C181.086,632.126 169.146,649.561 159.59,663.963 " fill="none" id="Plane-AircraftType" style="stroke: #A80036; stroke-width: 1.0;"/><polygon fill="#FFFFFF" points="216.102,587.143,209.2158,589.2832,208.5428,596.4628,215.429,594.3226,216.102,587.143" style="stroke: #A80036; stroke-width: 1.0;"/><text fill="#000000" font-family="sans-serif" font-size="13" lengthAdjust="spacingAndGlyphs" textLength="43" x="193.5" y="630.0669">has an</text><!--
@startuml
class Airport {
  String code
  String Name
  ArrayList<Hangar> hangars
  HashMap<Plane,Hangar>: planeAssignments
  HashMap<Passenger,Flight>: flightRoster
  ArrayList<Flight> : flights

  addHangar(hangar)
  addFlight(flight)
  sellFlight(flight,ArrayList<passenger> group)
  assignPlaneToHangar(plane, hangar)
  getPassengerFlight(string) : Flight
  - assignPassengersToFlight(ArrayList<passenger>, Flight)
  - getHangarByName(String) : Hangar
  - getFlightByFlightNumber(String) : Flight
  
}

class Hangar {
  String: name
}

enum AircraftType {
  Int : capacity
}

class Airline {
  String : code
  String : name
}

class Flight {
  String : destination
  String : flightNumber
  Plane : plane
}

class Plane {
  AircraftType : type
  Airline : airline
  ArrayList<Passenger> : passengers
  canAddPassengers(ArrayList<Passenger>) : boolean
  addPassengers(ArrayList<Passenger>)
}

class Passenger {
  String : name
}

Airport *- - Hangar : has many
Airport o- - Flight : has many
Flight o- - Plane : has a
Plane ... Airline : belongs to
Plane o- - Passenger : holds
Plane o- - AircraftType : has an
@enduml

PlantUML version 1.2018.14(Fri Dec 21 16:33:16 UTC 2018)
(GPL source distribution)
Java Runtime: OpenJDK Runtime Environment
JVM: OpenJDK 64-Bit Server VM
Java Version: 1.8.0_181-8u181-b13-2~deb9u1-b13
Operating System: Linux
OS Version: 4.9.125-linuxkit
Default Encoding: UTF-8
Language: en
Country: null
--></g></svg>