<?xml version="1.0" encoding="UTF-8" standalone="no"?>
<svg xmlns="http://www.w3.org/2000/svg" xmlns:xlink="http://www.w3.org/1999/xlink" contentScriptType="application/ecmascript" contentStyleType="text/css" height="845px" preserveAspectRatio="none" style="width:965px;height:845px;" version="1.1" viewBox="0 0 965 845" width="965px" zoomAndPan="magnify"><defs><filter height="300%" id="fwhrg6oabq0tr" width="300%" x="-1" y="-1"><feGaussianBlur result="blurOut" stdDeviation="2.0"/><feColorMatrix in="blurOut" result="blurOut2" type="matrix" values="0 0 0 0 0 0 0 0 0 0 0 0 0 0 0 0 0 0 .4 0"/><feOffset dx="4.0" dy="4.0" in="blurOut2" result="blurOut3"/><feBlend in="SourceGraphic" in2="blurOut3" mode="normal"/></filter></defs><g><!--class Airport--><rect fill="#FEFECE" filter="url(#fwhrg6oabq0tr)" height="188.8516" id="Airport" style="stroke: #A80036; stroke-width: 1.5;" width="282" x="237" y="8"/><ellipse cx="352.75" cy="24" fill="#ADD1B2" rx="11" ry="11" style="stroke: #A80036; stroke-width: 1.0;"/><path d="M355.7188,29.6406 Q355.1406,29.9375 354.5,30.0859 Q353.8594,30.2344 353.1563,30.2344 Q350.6563,30.2344 349.3359,28.5859 Q348.0156,26.9375 348.0156,23.8125 Q348.0156,20.6875 349.3359,19.0313 Q350.6563,17.375 353.1563,17.375 Q353.8594,17.375 354.5078,17.5313 Q355.1563,17.6875 355.7188,17.9844 L355.7188,20.7031 Q355.0938,20.125 354.5,19.8516 Q353.9063,19.5781 353.2813,19.5781 Q351.9375,19.5781 351.25,20.6484 Q350.5625,21.7188 350.5625,23.8125 Q350.5625,25.9063 351.25,26.9766 Q351.9375,28.0469 353.2813,28.0469 Q353.9063,28.0469 354.5,27.7734 Q355.0938,27.5 355.7188,26.9219 L355.7188,29.6406 Z "/><text fill="#000000" font-family="sans-serif" font-size="12" lengthAdjust="spacingAndGlyphs" textLength="42" x="373.25" y="28.1543">Airport</text><line style="stroke: #A80036; stroke-width: 1.5;" x1="238" x2="518" y1="40" y2="40"/><text fill="#000000" font-family="sans-serif" font-size="11" lengthAdjust="spacingAndGlyphs" textLength="65" x="243" y="54.2104">String code</text><text fill="#000000" font-family="sans-serif" font-size="11" lengthAdjust="spacingAndGlyphs" textLength="71" x="243" y="67.0151">String Name</text><text fill="#000000" font-family="sans-serif" font-size="11" lengthAdjust="spacingAndGlyphs" textLength="160" x="243" y="79.8198">ArrayList&lt;Hangar&gt; hangars</text><text fill="#000000" font-family="sans-serif" font-size="11" lengthAdjust="spacingAndGlyphs" textLength="248" x="243" y="92.6245">ArrayList&lt;PlaneAssignment&gt;: assignments</text><text fill="#000000" font-family="sans-serif" font-size="11" lengthAdjust="spacingAndGlyphs" textLength="262" x="243" y="105.4292">ArrayList&lt;PassengerAssigment&gt;: flightRoster</text><text fill="#000000" font-family="sans-serif" font-size="11" lengthAdjust="spacingAndGlyphs" textLength="145" x="243" y="118.2339">ArrayList&lt;Flight&gt; : flights</text><line style="stroke: #A80036; stroke-width: 1.5;" x1="238" x2="518" y1="124.8281" y2="124.8281"/><text fill="#000000" font-family="sans-serif" font-size="11" lengthAdjust="spacingAndGlyphs" textLength="110" x="257" y="139.0386">addHangar(hangar)</text><text fill="#000000" font-family="sans-serif" font-size="11" lengthAdjust="spacingAndGlyphs" textLength="87" x="257" y="151.8433">addFlight(flight)</text><text fill="#000000" font-family="sans-serif" font-size="11" lengthAdjust="spacingAndGlyphs" textLength="256" x="257" y="164.6479">sellFlight(flight,ArrayList&lt;passenger&gt; group)</text><rect fill="#F24D5C" height="6" style="stroke: #C82930; stroke-width: 1.0;" width="6" x="245" y="172.1445"/><text fill="#000000" font-family="sans-serif" font-size="11" lengthAdjust="spacingAndGlyphs" textLength="156" x="257" y="177.4526">assignPlane(plane, hangar)</text><rect fill="#F24D5C" height="6" style="stroke: #C82930; stroke-width: 1.0;" width="6" x="245" y="184.9492"/><text fill="#000000" font-family="sans-serif" font-size="11" lengthAdjust="spacingAndGlyphs" textLength="204" x="257" y="190.2573">assignPassenger(flight, passenger)</text><!--class Hangar--><rect fill="#FEFECE" filter="url(#fwhrg6oabq0tr)" height="60.8047" id="Hangar" style="stroke: #A80036; stroke-width: 1.5;" width="86" x="6" y="293"/><ellipse cx="24.6" cy="309" fill="#ADD1B2" rx="11" ry="11" style="stroke: #A80036; stroke-width: 1.0;"/><path d="M27.5688,314.6406 Q26.9906,314.9375 26.35,315.0859 Q25.7094,315.2344 25.0063,315.2344 Q22.5063,315.2344 21.1859,313.5859 Q19.8656,311.9375 19.8656,308.8125 Q19.8656,305.6875 21.1859,304.0313 Q22.5063,302.375 25.0063,302.375 Q25.7094,302.375 26.3578,302.5313 Q27.0063,302.6875 27.5688,302.9844 L27.5688,305.7031 Q26.9438,305.125 26.35,304.8516 Q25.7563,304.5781 25.1313,304.5781 Q23.7875,304.5781 23.1,305.6484 Q22.4125,306.7188 22.4125,308.8125 Q22.4125,310.9063 23.1,311.9766 Q23.7875,313.0469 25.1313,313.0469 Q25.7563,313.0469 26.35,312.7734 Q26.9438,312.5 27.5688,311.9219 L27.5688,314.6406 Z "/><text fill="#000000" font-family="sans-serif" font-size="12" lengthAdjust="spacingAndGlyphs" textLength="46" x="39.4" y="313.1543">Hangar</text><line style="stroke: #A80036; stroke-width: 1.5;" x1="7" x2="91" y1="325" y2="325"/><text fill="#000000" font-family="sans-serif" font-size="11" lengthAdjust="spacingAndGlyphs" textLength="74" x="12" y="339.2104">String: name</text><line style="stroke: #A80036; stroke-width: 1.5;" x1="7" x2="91" y1="345.8047" y2="345.8047"/><!--class PlaneAssignment--><rect fill="#FEFECE" filter="url(#fwhrg6oabq0tr)" height="99.2188" id="PlaneAssignment" style="stroke: #A80036; stroke-width: 1.5;" width="223" x="127.5" y="274"/><ellipse cx="180.75" cy="290" fill="#ADD1B2" rx="11" ry="11" style="stroke: #A80036; stroke-width: 1.0;"/><path d="M183.7188,295.6406 Q183.1406,295.9375 182.5,296.0859 Q181.8594,296.2344 181.1563,296.2344 Q178.6563,296.2344 177.3359,294.5859 Q176.0156,292.9375 176.0156,289.8125 Q176.0156,286.6875 177.3359,285.0313 Q178.6563,283.375 181.1563,283.375 Q181.8594,283.375 182.5078,283.5313 Q183.1563,283.6875 183.7188,283.9844 L183.7188,286.7031 Q183.0938,286.125 182.5,285.8516 Q181.9063,285.5781 181.2813,285.5781 Q179.9375,285.5781 179.25,286.6484 Q178.5625,287.7188 178.5625,289.8125 Q178.5625,291.9063 179.25,292.9766 Q179.9375,294.0469 181.2813,294.0469 Q181.9063,294.0469 182.5,293.7734 Q183.0938,293.5 183.7188,292.9219 L183.7188,295.6406 Z "/><text fill="#000000" font-family="sans-serif" font-size="12" lengthAdjust="spacingAndGlyphs" textLength="108" x="201.25" y="294.1543">PlaneAssignment</text><line style="stroke: #A80036; stroke-width: 1.5;" x1="128.5" x2="349.5" y1="306" y2="306"/><text fill="#000000" font-family="sans-serif" font-size="11" lengthAdjust="spacingAndGlyphs" textLength="70" x="133.5" y="320.2104">Plane: plane</text><text fill="#000000" font-family="sans-serif" font-size="11" lengthAdjust="spacingAndGlyphs" textLength="93" x="133.5" y="333.0151">Hangar : hangar</text><line style="stroke: #A80036; stroke-width: 1.5;" x1="128.5" x2="349.5" y1="339.6094" y2="339.6094"/><text fill="#000000" font-family="sans-serif" font-size="11" lengthAdjust="spacingAndGlyphs" textLength="211" x="133.5" y="353.8198">assignPlaneToHangar(plane, hangar)</text><text fill="#000000" font-family="sans-serif" font-size="11" lengthAdjust="spacingAndGlyphs" textLength="158" x="133.5" y="366.6245">movePlaneToRunway(plane)</text><!--class PassengerAssignment--><rect fill="#FEFECE" filter="url(#fwhrg6oabq0tr)" height="99.2188" id="PassengerAssignment" style="stroke: #A80036; stroke-width: 1.5;" width="264" x="386" y="274"/><ellipse cx="443.75" cy="290" fill="#ADD1B2" rx="11" ry="11" style="stroke: #A80036; stroke-width: 1.0;"/><path d="M446.7188,295.6406 Q446.1406,295.9375 445.5,296.0859 Q444.8594,296.2344 444.1563,296.2344 Q441.6563,296.2344 440.3359,294.5859 Q439.0156,292.9375 439.0156,289.8125 Q439.0156,286.6875 440.3359,285.0313 Q441.6563,283.375 444.1563,283.375 Q444.8594,283.375 445.5078,283.5313 Q446.1563,283.6875 446.7188,283.9844 L446.7188,286.7031 Q446.0938,286.125 445.5,285.8516 Q444.9063,285.5781 444.2813,285.5781 Q442.9375,285.5781 442.25,286.6484 Q441.5625,287.7188 441.5625,289.8125 Q441.5625,291.9063 442.25,292.9766 Q442.9375,294.0469 444.2813,294.0469 Q444.9063,294.0469 445.5,293.7734 Q446.0938,293.5 446.7188,292.9219 L446.7188,295.6406 Z "/><text fill="#000000" font-family="sans-serif" font-size="12" lengthAdjust="spacingAndGlyphs" textLength="140" x="464.25" y="294.1543">PassengerAssignment</text><line style="stroke: #A80036; stroke-width: 1.5;" x1="387" x2="649" y1="306" y2="306"/><text fill="#000000" font-family="sans-serif" font-size="11" lengthAdjust="spacingAndGlyphs" textLength="66" x="392" y="320.2104">Flight: flight</text><text fill="#000000" font-family="sans-serif" font-size="11" lengthAdjust="spacingAndGlyphs" textLength="130" x="392" y="333.0151">Passenger: passenger</text><line style="stroke: #A80036; stroke-width: 1.5;" x1="387" x2="649" y1="339.6094" y2="339.6094"/><text fill="#000000" font-family="sans-serif" font-size="11" lengthAdjust="spacingAndGlyphs" textLength="252" x="392" y="353.8198">assignPassengerToPlane(passenger, plane)</text><text fill="#000000" font-family="sans-serif" font-size="11" lengthAdjust="spacingAndGlyphs" textLength="233" x="392" y="366.6245">removePassengerFromPlane(passenger)</text><!--class AircraftType--><rect fill="#FEFECE" filter="url(#fwhrg6oabq0tr)" height="60.8047" id="AircraftType" style="stroke: #A80036; stroke-width: 1.5;" width="106" x="575" y="639"/><ellipse cx="590" cy="655" fill="#EB937F" rx="11" ry="11" style="stroke: #A80036; stroke-width: 1.0;"/><path d="M594.1094,661 L586.3906,661 L586.3906,648.6094 L594.1094,648.6094 L594.1094,650.7656 L588.8438,650.7656 L588.8438,653.4375 L593.6094,653.4375 L593.6094,655.5938 L588.8438,655.5938 L588.8438,658.8438 L594.1094,658.8438 L594.1094,661 Z "/><text fill="#000000" font-family="sans-serif" font-size="12" lengthAdjust="spacingAndGlyphs" textLength="74" x="604" y="659.1543">AircraftType</text><line style="stroke: #A80036; stroke-width: 1.5;" x1="576" x2="680" y1="671" y2="671"/><text fill="#000000" font-family="sans-serif" font-size="11" lengthAdjust="spacingAndGlyphs" textLength="72" x="581" y="685.2104">Int : capacity</text><line style="stroke: #A80036; stroke-width: 1.5;" x1="576" x2="680" y1="691.8047" y2="691.8047"/><!--class Airline--><rect fill="#FEFECE" filter="url(#fwhrg6oabq0tr)" height="73.6094" id="Airline" style="stroke: #A80036; stroke-width: 1.5;" width="90" x="706" y="761"/><ellipse cx="730" cy="777" fill="#ADD1B2" rx="11" ry="11" style="stroke: #A80036; stroke-width: 1.0;"/><path d="M732.9688,782.6406 Q732.3906,782.9375 731.75,783.0859 Q731.1094,783.2344 730.4063,783.2344 Q727.9063,783.2344 726.5859,781.5859 Q725.2656,779.9375 725.2656,776.8125 Q725.2656,773.6875 726.5859,772.0313 Q727.9063,770.375 730.4063,770.375 Q731.1094,770.375 731.7578,770.5313 Q732.4063,770.6875 732.9688,770.9844 L732.9688,773.7031 Q732.3438,773.125 731.75,772.8516 Q731.1563,772.5781 730.5313,772.5781 Q729.1875,772.5781 728.5,773.6484 Q727.8125,774.7188 727.8125,776.8125 Q727.8125,778.9063 728.5,779.9766 Q729.1875,781.0469 730.5313,781.0469 Q731.1563,781.0469 731.75,780.7734 Q732.3438,780.5 732.9688,779.9219 L732.9688,782.6406 Z "/><text fill="#000000" font-family="sans-serif" font-size="12" lengthAdjust="spacingAndGlyphs" textLength="38" x="746" y="781.1543">Airline</text><line style="stroke: #A80036; stroke-width: 1.5;" x1="707" x2="795" y1="793" y2="793"/><text fill="#000000" font-family="sans-serif" font-size="11" lengthAdjust="spacingAndGlyphs" textLength="73" x="712" y="807.2104">String : code</text><text fill="#000000" font-family="sans-serif" font-size="11" lengthAdjust="spacingAndGlyphs" textLength="78" x="712" y="820.0151">String : name</text><line style="stroke: #A80036; stroke-width: 1.5;" x1="707" x2="795" y1="826.6094" y2="826.6094"/><!--class Flight--><rect fill="#FEFECE" filter="url(#fwhrg6oabq0tr)" height="86.4141" id="Flight" style="stroke: #A80036; stroke-width: 1.5;" width="131" x="685.5" y="280.5"/><ellipse cx="729.75" cy="296.5" fill="#ADD1B2" rx="11" ry="11" style="stroke: #A80036; stroke-width: 1.0;"/><path d="M732.7188,302.1406 Q732.1406,302.4375 731.5,302.5859 Q730.8594,302.7344 730.1563,302.7344 Q727.6563,302.7344 726.3359,301.0859 Q725.0156,299.4375 725.0156,296.3125 Q725.0156,293.1875 726.3359,291.5313 Q727.6563,289.875 730.1563,289.875 Q730.8594,289.875 731.5078,290.0313 Q732.1563,290.1875 732.7188,290.4844 L732.7188,293.2031 Q732.0938,292.625 731.5,292.3516 Q730.9063,292.0781 730.2813,292.0781 Q728.9375,292.0781 728.25,293.1484 Q727.5625,294.2188 727.5625,296.3125 Q727.5625,298.4063 728.25,299.4766 Q728.9375,300.5469 730.2813,300.5469 Q730.9063,300.5469 731.5,300.2734 Q732.0938,300 732.7188,299.4219 L732.7188,302.1406 Z "/><text fill="#000000" font-family="sans-serif" font-size="12" lengthAdjust="spacingAndGlyphs" textLength="34" x="750.25" y="300.6543">Flight</text><line style="stroke: #A80036; stroke-width: 1.5;" x1="686.5" x2="815.5" y1="312.5" y2="312.5"/><text fill="#000000" font-family="sans-serif" font-size="11" lengthAdjust="spacingAndGlyphs" textLength="109" x="691.5" y="326.7104">String : destination</text><text fill="#000000" font-family="sans-serif" font-size="11" lengthAdjust="spacingAndGlyphs" textLength="119" x="691.5" y="339.5151">String : flightNumber</text><text fill="#000000" font-family="sans-serif" font-size="11" lengthAdjust="spacingAndGlyphs" textLength="74" x="691.5" y="352.3198">Plane : plane</text><line style="stroke: #A80036; stroke-width: 1.5;" x1="686.5" x2="815.5" y1="358.9141" y2="358.9141"/><!--class Plane--><rect fill="#FEFECE" filter="url(#fwhrg6oabq0tr)" height="112.0234" id="Plane" style="stroke: #A80036; stroke-width: 1.5;" width="315" x="593.5" y="450"/><ellipse cx="729.25" cy="466" fill="#ADD1B2" rx="11" ry="11" style="stroke: #A80036; stroke-width: 1.0;"/><path d="M732.2188,471.6406 Q731.6406,471.9375 731,472.0859 Q730.3594,472.2344 729.6563,472.2344 Q727.1563,472.2344 725.8359,470.5859 Q724.5156,468.9375 724.5156,465.8125 Q724.5156,462.6875 725.8359,461.0313 Q727.1563,459.375 729.6563,459.375 Q730.3594,459.375 731.0078,459.5313 Q731.6563,459.6875 732.2188,459.9844 L732.2188,462.7031 Q731.5938,462.125 731,461.8516 Q730.4063,461.5781 729.7813,461.5781 Q728.4375,461.5781 727.75,462.6484 Q727.0625,463.7188 727.0625,465.8125 Q727.0625,467.9063 727.75,468.9766 Q728.4375,470.0469 729.7813,470.0469 Q730.4063,470.0469 731,469.7734 Q731.5938,469.5 732.2188,468.9219 L732.2188,471.6406 Z "/><text fill="#000000" font-family="sans-serif" font-size="12" lengthAdjust="spacingAndGlyphs" textLength="35" x="749.75" y="470.1543">Plane</text><line style="stroke: #A80036; stroke-width: 1.5;" x1="594.5" x2="907.5" y1="482" y2="482"/><text fill="#000000" font-family="sans-serif" font-size="11" lengthAdjust="spacingAndGlyphs" textLength="104" x="599.5" y="496.2104">AircraftType : type</text><text fill="#000000" font-family="sans-serif" font-size="11" lengthAdjust="spacingAndGlyphs" textLength="82" x="599.5" y="509.0151">Airline : airline</text><text fill="#000000" font-family="sans-serif" font-size="11" lengthAdjust="spacingAndGlyphs" textLength="209" x="599.5" y="521.8198">ArrayList&lt;Passenger&gt; : passengers</text><line style="stroke: #A80036; stroke-width: 1.5;" x1="594.5" x2="907.5" y1="528.4141" y2="528.4141"/><text fill="#000000" font-family="sans-serif" font-size="11" lengthAdjust="spacingAndGlyphs" textLength="303" x="599.5" y="542.6245">canAddPassengers(ArrayList&lt;Passenger&gt;) : boolean</text><text fill="#000000" font-family="sans-serif" font-size="11" lengthAdjust="spacingAndGlyphs" textLength="226" x="599.5" y="555.4292">addPassengers(ArrayList&lt;Passenger&gt;)</text><!--class Passenger--><rect fill="#FEFECE" filter="url(#fwhrg6oabq0tr)" height="60.8047" id="Passenger" style="stroke: #A80036; stroke-width: 1.5;" width="99" x="855.5" y="639"/><ellipse cx="870.5" cy="655" fill="#ADD1B2" rx="11" ry="11" style="stroke: #A80036; stroke-width: 1.0;"/><path d="M873.4688,660.6406 Q872.8906,660.9375 872.25,661.0859 Q871.6094,661.2344 870.9063,661.2344 Q868.4063,661.2344 867.0859,659.5859 Q865.7656,657.9375 865.7656,654.8125 Q865.7656,651.6875 867.0859,650.0313 Q868.4063,648.375 870.9063,648.375 Q871.6094,648.375 872.2578,648.5313 Q872.9063,648.6875 873.4688,648.9844 L873.4688,651.7031 Q872.8438,651.125 872.25,650.8516 Q871.6563,650.5781 871.0313,650.5781 Q869.6875,650.5781 869,651.6484 Q868.3125,652.7188 868.3125,654.8125 Q868.3125,656.9063 869,657.9766 Q869.6875,659.0469 871.0313,659.0469 Q871.6563,659.0469 872.25,658.7734 Q872.8438,658.5 873.4688,657.9219 L873.4688,660.6406 Z "/><text fill="#000000" font-family="sans-serif" font-size="12" lengthAdjust="spacingAndGlyphs" textLength="67" x="884.5" y="659.1543">Passenger</text><line style="stroke: #A80036; stroke-width: 1.5;" x1="856.5" x2="953.5" y1="671" y2="671"/><text fill="#000000" font-family="sans-serif" font-size="11" lengthAdjust="spacingAndGlyphs" textLength="78" x="861.5" y="685.2104">String : name</text><line style="stroke: #A80036; stroke-width: 1.5;" x1="856.5" x2="953.5" y1="691.8047" y2="691.8047"/><!--link Airport to Hangar--><path d="M225.472,196.636 C187.244,221.038 146.684,247.857 110,274 C101.7365,279.889 93.0792,286.49 84.9681,292.881 " fill="none" id="Airport-Hangar" style="stroke: #A80036; stroke-width: 1.0;"/><polygon fill="#A80036" points="236.718,189.483,229.5086,189.3278,226.5925,195.923,233.8019,196.0782,236.718,189.483" style="stroke: #A80036; stroke-width: 1.0;"/><text fill="#000000" font-family="sans-serif" font-size="13" lengthAdjust="spacingAndGlyphs" textLength="63" x="176" y="240.0669">has many</text><!--link Airport to Flight--><path d="M530.473,193.022 C584.481,224.731 642.429,258.754 685.364,283.963 " fill="none" id="Airport-Flight" style="stroke: #A80036; stroke-width: 1.0;"/><polygon fill="#FFFFFF" points="519.015,186.295,522.1634,192.7825,529.3628,192.3715,526.2144,185.884,519.015,186.295" style="stroke: #A80036; stroke-width: 1.0;"/><text fill="#000000" font-family="sans-serif" font-size="13" lengthAdjust="spacingAndGlyphs" textLength="63" x="609" y="240.0669">has many</text><!--link Airport to PlaneAssignment--><path d="M311.514,208.251 C296.929,231.231 282.167,254.489 269.803,273.969 " fill="none" id="Airport-PlaneAssignment" style="stroke: #A80036; stroke-width: 1.0;"/><polygon fill="#FFFFFF" points="318.648,197.011,312.0557,199.9335,312.2179,207.1428,318.8102,204.2203,318.648,197.011" style="stroke: #A80036; stroke-width: 1.0;"/><text fill="#000000" font-family="sans-serif" font-size="13" lengthAdjust="spacingAndGlyphs" textLength="63" x="298" y="240.0669">has many</text><!--link Airport to PassengerAssignment--><path d="M444.964,208.251 C459.654,231.231 474.523,254.489 486.976,273.969 " fill="none" id="Airport-PassengerAssignment" style="stroke: #A80036; stroke-width: 1.0;"/><polygon fill="#FFFFFF" points="437.779,197.011,437.641,204.2208,444.2431,207.1212,444.3811,199.9114,437.779,197.011" style="stroke: #A80036; stroke-width: 1.0;"/><text fill="#000000" font-family="sans-serif" font-size="13" lengthAdjust="spacingAndGlyphs" textLength="63" x="465" y="240.0669">has many</text><!--link Flight to Plane--><path d="M751,379.836 C751,402.097 751,427.709 751,449.942 " fill="none" id="Flight-Plane" style="stroke: #A80036; stroke-width: 1.0;"/><polygon fill="#FFFFFF" points="751,366.819,747,372.819,751,378.819,755,372.819,751,366.819" style="stroke: #A80036; stroke-width: 1.0;"/><text fill="#000000" font-family="sans-serif" font-size="13" lengthAdjust="spacingAndGlyphs" textLength="35" x="752" y="416.0669">has a</text><!--link Plane to Airline--><path d="M751,562.229 C751,620.569 751,710.873 751,760.7697 " fill="none" id="Plane-Airline" style="stroke: #A80036; stroke-width: 1.0; stroke-dasharray: 7.0,7.0;"/><text fill="#000000" font-family="sans-serif" font-size="13" lengthAdjust="spacingAndGlyphs" textLength="67" x="752" y="674.0669">belongs to</text><!--link Plane to Passenger--><path d="M812.636,571.638 C834.872,594.957 858.89,620.144 876.859,638.988 " fill="none" id="Plane-Passenger" style="stroke: #A80036; stroke-width: 1.0;"/><polygon fill="#FFFFFF" points="803.567,562.127,804.8127,569.2297,811.8481,570.8116,810.6024,563.7089,803.567,562.127" style="stroke: #A80036; stroke-width: 1.0;"/><text fill="#000000" font-family="sans-serif" font-size="13" lengthAdjust="spacingAndGlyphs" textLength="34" x="847" y="605.0669">holds</text><!--link Plane to AircraftType--><path d="M701.06,572.572 C683.5,595.627 664.637,620.396 650.476,638.988 " fill="none" id="Plane-AircraftType" style="stroke: #A80036; stroke-width: 1.0;"/><polygon fill="#FFFFFF" points="709.014,562.127,702.1965,564.4769,701.7435,571.6737,708.561,569.3239,709.014,562.127" style="stroke: #A80036; stroke-width: 1.0;"/><text fill="#000000" font-family="sans-serif" font-size="13" lengthAdjust="spacingAndGlyphs" textLength="35" x="686" y="605.0669">has a</text><!--
@startuml
class Airport {
  String code
  String Name
  ArrayList<Hangar> hangars
  ArrayList<PlaneAssignment>: assignments
  ArrayList<PassengerAssigment>: flightRoster
  ArrayList<Flight> : flights
  addHangar(hangar)
  addFlight(flight)
  sellFlight(flight,ArrayList<passenger> group)
  - assignPlane(plane, hangar)
  - assignPassenger(flight, passenger)
}

class Hangar {
  String: name
}

class PlaneAssignment {
  Plane: plane
  Hangar : hangar
  assignPlaneToHangar(plane, hangar)
  movePlaneToRunway(plane)
}

class PassengerAssignment {
  Flight: flight
  Passenger: passenger
  assignPassengerToPlane(passenger, plane)
  removePassengerFromPlane(passenger)
}

enum AircraftType {
  Int : capacity
}

class Airline {
  String : code
  String : name
}

class Flight {
  String : destination
  String : flightNumber
  Plane : plane
}

class Plane {
  AircraftType : type
  Airline : airline
  ArrayList<Passenger> : passengers
  canAddPassengers(ArrayList<Passenger>) : boolean
  addPassengers(ArrayList<Passenger>)
}

class Passenger {
  String : name
}

Airport *- - Hangar : has many
Airport o- - Flight : has many
Airport o- - PlaneAssignment : has many
Airport o- - PassengerAssignment : has many
Flight o- - Plane : has a
Plane ... Airline : belongs to
Plane o- - Passenger : holds
Plane o- - AircraftType : has a
@enduml

PlantUML version 1.2018.14(Fri Dec 21 16:33:16 UTC 2018)
(GPL source distribution)
Java Runtime: OpenJDK Runtime Environment
JVM: OpenJDK 64-Bit Server VM
Java Version: 1.8.0_181-8u181-b13-2~deb9u1-b13
Operating System: Linux
OS Version: 4.9.125-linuxkit
Default Encoding: UTF-8
Language: en
Country: null
--></g></svg>