<?xml version="1.0" encoding="UTF-8" standalone="no"?>
<svg xmlns="http://www.w3.org/2000/svg" xmlns:xlink="http://www.w3.org/1999/xlink" contentScriptType="application/ecmascript" contentStyleType="text/css" height="870px" preserveAspectRatio="none" style="width:443px;height:870px;" version="1.1" viewBox="0 0 443 870" width="443px" zoomAndPan="magnify"><defs><filter height="300%" id="fkfw1yyf6d6kz" width="300%" x="-1" y="-1"><feGaussianBlur result="blurOut" stdDeviation="2.0"/><feColorMatrix in="blurOut" result="blurOut2" type="matrix" values="0 0 0 0 0 0 0 0 0 0 0 0 0 0 0 0 0 0 .4 0"/><feOffset dx="4.0" dy="4.0" in="blurOut2" result="blurOut3"/><feBlend in="SourceGraphic" in2="blurOut3" mode="normal"/></filter></defs><g><!--class Airport--><rect fill="#FEFECE" filter="url(#fkfw1yyf6d6kz)" height="227.2656" id="Airport" style="stroke: #A80036; stroke-width: 1.5;" width="282" x="6" y="8"/><ellipse cx="121.75" cy="24" fill="#ADD1B2" rx="11" ry="11" style="stroke: #A80036; stroke-width: 1.0;"/><path d="M124.7188,29.6406 Q124.1406,29.9375 123.5,30.0859 Q122.8594,30.2344 122.1563,30.2344 Q119.6563,30.2344 118.3359,28.5859 Q117.0156,26.9375 117.0156,23.8125 Q117.0156,20.6875 118.3359,19.0313 Q119.6563,17.375 122.1563,17.375 Q122.8594,17.375 123.5078,17.5313 Q124.1563,17.6875 124.7188,17.9844 L124.7188,20.7031 Q124.0938,20.125 123.5,19.8516 Q122.9063,19.5781 122.2813,19.5781 Q120.9375,19.5781 120.25,20.6484 Q119.5625,21.7188 119.5625,23.8125 Q119.5625,25.9063 120.25,26.9766 Q120.9375,28.0469 122.2813,28.0469 Q122.9063,28.0469 123.5,27.7734 Q124.0938,27.5 124.7188,26.9219 L124.7188,29.6406 Z "/><text fill="#000000" font-family="sans-serif" font-size="12" lengthAdjust="spacingAndGlyphs" textLength="42" x="142.25" y="28.1543">Airport</text><line style="stroke: #A80036; stroke-width: 1.5;" x1="7" x2="287" y1="40" y2="40"/><text fill="#000000" font-family="sans-serif" font-size="11" lengthAdjust="spacingAndGlyphs" textLength="65" x="12" y="54.2104">String code</text><text fill="#000000" font-family="sans-serif" font-size="11" lengthAdjust="spacingAndGlyphs" textLength="71" x="12" y="67.0151">String Name</text><text fill="#000000" font-family="sans-serif" font-size="11" lengthAdjust="spacingAndGlyphs" textLength="160" x="12" y="79.8198">ArrayList&lt;Hangar&gt; hangars</text><text fill="#000000" font-family="sans-serif" font-size="11" lengthAdjust="spacingAndGlyphs" textLength="259" x="12" y="92.6245">HashMap&lt;Plane,Hangar&gt;: planeAssignments</text><text fill="#000000" font-family="sans-serif" font-size="11" lengthAdjust="spacingAndGlyphs" textLength="238" x="12" y="105.4292">HashMap&lt;Passenger,Flight&gt;: flightRoster</text><text fill="#000000" font-family="sans-serif" font-size="11" lengthAdjust="spacingAndGlyphs" textLength="145" x="12" y="118.2339">ArrayList&lt;Flight&gt; : flights</text><line style="stroke: #A80036; stroke-width: 1.5;" x1="7" x2="287" y1="124.8281" y2="124.8281"/><text fill="#000000" font-family="sans-serif" font-size="11" lengthAdjust="spacingAndGlyphs" textLength="110" x="26" y="139.0386">addHangar(hangar)</text><text fill="#000000" font-family="sans-serif" font-size="11" lengthAdjust="spacingAndGlyphs" textLength="87" x="26" y="151.8433">addFlight(flight)</text><text fill="#000000" font-family="sans-serif" font-size="11" lengthAdjust="spacingAndGlyphs" textLength="256" x="26" y="164.6479">sellFlight(flight,ArrayList&lt;passenger&gt; group)</text><text fill="#000000" font-family="sans-serif" font-size="11" lengthAdjust="spacingAndGlyphs" textLength="211" x="26" y="177.4526">assignPlaneToHangar(plane, hangar)</text><text fill="#000000" font-family="sans-serif" font-size="11" lengthAdjust="spacingAndGlyphs" textLength="0" x="30" y="190.2573"/><rect fill="#F24D5C" height="6" style="stroke: #C82930; stroke-width: 1.0;" width="6" x="14" y="197.7539"/><text fill="#000000" font-family="sans-serif" font-size="11" lengthAdjust="spacingAndGlyphs" textLength="248" x="26" y="203.062">assignPassengerToFlight(passenger, flight)</text><rect fill="#F24D5C" height="6" style="stroke: #C82930; stroke-width: 1.0;" width="6" x="14" y="210.5586"/><text fill="#000000" font-family="sans-serif" font-size="11" lengthAdjust="spacingAndGlyphs" textLength="200" x="26" y="215.8667">getHangarByName(string) : Hangar</text><rect fill="#F24D5C" height="6" style="stroke: #C82930; stroke-width: 1.0;" width="6" x="14" y="223.3633"/><text fill="#000000" font-family="sans-serif" font-size="11" lengthAdjust="spacingAndGlyphs" textLength="220" x="26" y="228.6714">getFlightByFlightNumber(string) : Flight</text><!--class Hangar--><rect fill="#FEFECE" filter="url(#fkfw1yyf6d6kz)" height="60.8047" id="Hangar" style="stroke: #A80036; stroke-width: 1.5;" width="86" x="42" y="324.5"/><ellipse cx="60.6" cy="340.5" fill="#ADD1B2" rx="11" ry="11" style="stroke: #A80036; stroke-width: 1.0;"/><path d="M63.5688,346.1406 Q62.9906,346.4375 62.35,346.5859 Q61.7094,346.7344 61.0063,346.7344 Q58.5063,346.7344 57.1859,345.0859 Q55.8656,343.4375 55.8656,340.3125 Q55.8656,337.1875 57.1859,335.5313 Q58.5063,333.875 61.0063,333.875 Q61.7094,333.875 62.3578,334.0313 Q63.0063,334.1875 63.5688,334.4844 L63.5688,337.2031 Q62.9438,336.625 62.35,336.3516 Q61.7563,336.0781 61.1313,336.0781 Q59.7875,336.0781 59.1,337.1484 Q58.4125,338.2188 58.4125,340.3125 Q58.4125,342.4063 59.1,343.4766 Q59.7875,344.5469 61.1313,344.5469 Q61.7563,344.5469 62.35,344.2734 Q62.9438,344 63.5688,343.4219 L63.5688,346.1406 Z "/><text fill="#000000" font-family="sans-serif" font-size="12" lengthAdjust="spacingAndGlyphs" textLength="46" x="75.4" y="344.6543">Hangar</text><line style="stroke: #A80036; stroke-width: 1.5;" x1="43" x2="127" y1="356.5" y2="356.5"/><text fill="#000000" font-family="sans-serif" font-size="11" lengthAdjust="spacingAndGlyphs" textLength="74" x="48" y="370.7104">String: name</text><line style="stroke: #A80036; stroke-width: 1.5;" x1="43" x2="127" y1="377.3047" y2="377.3047"/><!--class AircraftType--><rect fill="#FEFECE" filter="url(#fkfw1yyf6d6kz)" height="60.8047" id="AircraftType" style="stroke: #A80036; stroke-width: 1.5;" width="106" x="53" y="664"/><ellipse cx="68" cy="680" fill="#EB937F" rx="11" ry="11" style="stroke: #A80036; stroke-width: 1.0;"/><path d="M72.1094,686 L64.3906,686 L64.3906,673.6094 L72.1094,673.6094 L72.1094,675.7656 L66.8438,675.7656 L66.8438,678.4375 L71.6094,678.4375 L71.6094,680.5938 L66.8438,680.5938 L66.8438,683.8438 L72.1094,683.8438 L72.1094,686 Z "/><text fill="#000000" font-family="sans-serif" font-size="12" lengthAdjust="spacingAndGlyphs" textLength="74" x="82" y="684.1543">AircraftType</text><line style="stroke: #A80036; stroke-width: 1.5;" x1="54" x2="158" y1="696" y2="696"/><text fill="#000000" font-family="sans-serif" font-size="11" lengthAdjust="spacingAndGlyphs" textLength="72" x="59" y="710.2104">Int : capacity</text><line style="stroke: #A80036; stroke-width: 1.5;" x1="54" x2="158" y1="716.8047" y2="716.8047"/><!--class Airline--><rect fill="#FEFECE" filter="url(#fkfw1yyf6d6kz)" height="73.6094" id="Airline" style="stroke: #A80036; stroke-width: 1.5;" width="90" x="184" y="786"/><ellipse cx="208" cy="802" fill="#ADD1B2" rx="11" ry="11" style="stroke: #A80036; stroke-width: 1.0;"/><path d="M210.9688,807.6406 Q210.3906,807.9375 209.75,808.0859 Q209.1094,808.2344 208.4063,808.2344 Q205.9063,808.2344 204.5859,806.5859 Q203.2656,804.9375 203.2656,801.8125 Q203.2656,798.6875 204.5859,797.0313 Q205.9063,795.375 208.4063,795.375 Q209.1094,795.375 209.7578,795.5313 Q210.4063,795.6875 210.9688,795.9844 L210.9688,798.7031 Q210.3438,798.125 209.75,797.8516 Q209.1563,797.5781 208.5313,797.5781 Q207.1875,797.5781 206.5,798.6484 Q205.8125,799.7188 205.8125,801.8125 Q205.8125,803.9063 206.5,804.9766 Q207.1875,806.0469 208.5313,806.0469 Q209.1563,806.0469 209.75,805.7734 Q210.3438,805.5 210.9688,804.9219 L210.9688,807.6406 Z "/><text fill="#000000" font-family="sans-serif" font-size="12" lengthAdjust="spacingAndGlyphs" textLength="38" x="224" y="806.1543">Airline</text><line style="stroke: #A80036; stroke-width: 1.5;" x1="185" x2="273" y1="818" y2="818"/><text fill="#000000" font-family="sans-serif" font-size="11" lengthAdjust="spacingAndGlyphs" textLength="73" x="190" y="832.2104">String : code</text><text fill="#000000" font-family="sans-serif" font-size="11" lengthAdjust="spacingAndGlyphs" textLength="78" x="190" y="845.0151">String : name</text><line style="stroke: #A80036; stroke-width: 1.5;" x1="185" x2="273" y1="851.6094" y2="851.6094"/><!--class Flight--><rect fill="#FEFECE" filter="url(#fkfw1yyf6d6kz)" height="86.4141" id="Flight" style="stroke: #A80036; stroke-width: 1.5;" width="131" x="163.5" y="312"/><ellipse cx="207.75" cy="328" fill="#ADD1B2" rx="11" ry="11" style="stroke: #A80036; stroke-width: 1.0;"/><path d="M210.7188,333.6406 Q210.1406,333.9375 209.5,334.0859 Q208.8594,334.2344 208.1563,334.2344 Q205.6563,334.2344 204.3359,332.5859 Q203.0156,330.9375 203.0156,327.8125 Q203.0156,324.6875 204.3359,323.0313 Q205.6563,321.375 208.1563,321.375 Q208.8594,321.375 209.5078,321.5313 Q210.1563,321.6875 210.7188,321.9844 L210.7188,324.7031 Q210.0938,324.125 209.5,323.8516 Q208.9063,323.5781 208.2813,323.5781 Q206.9375,323.5781 206.25,324.6484 Q205.5625,325.7188 205.5625,327.8125 Q205.5625,329.9063 206.25,330.9766 Q206.9375,332.0469 208.2813,332.0469 Q208.9063,332.0469 209.5,331.7734 Q210.0938,331.5 210.7188,330.9219 L210.7188,333.6406 Z "/><text fill="#000000" font-family="sans-serif" font-size="12" lengthAdjust="spacingAndGlyphs" textLength="34" x="228.25" y="332.1543">Flight</text><line style="stroke: #A80036; stroke-width: 1.5;" x1="164.5" x2="293.5" y1="344" y2="344"/><text fill="#000000" font-family="sans-serif" font-size="11" lengthAdjust="spacingAndGlyphs" textLength="109" x="169.5" y="358.2104">String : destination</text><text fill="#000000" font-family="sans-serif" font-size="11" lengthAdjust="spacingAndGlyphs" textLength="119" x="169.5" y="371.0151">String : flightNumber</text><text fill="#000000" font-family="sans-serif" font-size="11" lengthAdjust="spacingAndGlyphs" textLength="74" x="169.5" y="383.8198">Plane : plane</text><line style="stroke: #A80036; stroke-width: 1.5;" x1="164.5" x2="293.5" y1="390.4141" y2="390.4141"/><!--class Plane--><rect fill="#FEFECE" filter="url(#fkfw1yyf6d6kz)" height="112.0234" id="Plane" style="stroke: #A80036; stroke-width: 1.5;" width="315" x="71.5" y="475"/><ellipse cx="207.25" cy="491" fill="#ADD1B2" rx="11" ry="11" style="stroke: #A80036; stroke-width: 1.0;"/><path d="M210.2188,496.6406 Q209.6406,496.9375 209,497.0859 Q208.3594,497.2344 207.6563,497.2344 Q205.1563,497.2344 203.8359,495.5859 Q202.5156,493.9375 202.5156,490.8125 Q202.5156,487.6875 203.8359,486.0313 Q205.1563,484.375 207.6563,484.375 Q208.3594,484.375 209.0078,484.5313 Q209.6563,484.6875 210.2188,484.9844 L210.2188,487.7031 Q209.5938,487.125 209,486.8516 Q208.4063,486.5781 207.7813,486.5781 Q206.4375,486.5781 205.75,487.6484 Q205.0625,488.7188 205.0625,490.8125 Q205.0625,492.9063 205.75,493.9766 Q206.4375,495.0469 207.7813,495.0469 Q208.4063,495.0469 209,494.7734 Q209.5938,494.5 210.2188,493.9219 L210.2188,496.6406 Z "/><text fill="#000000" font-family="sans-serif" font-size="12" lengthAdjust="spacingAndGlyphs" textLength="35" x="227.75" y="495.1543">Plane</text><line style="stroke: #A80036; stroke-width: 1.5;" x1="72.5" x2="385.5" y1="507" y2="507"/><text fill="#000000" font-family="sans-serif" font-size="11" lengthAdjust="spacingAndGlyphs" textLength="104" x="77.5" y="521.2104">AircraftType : type</text><text fill="#000000" font-family="sans-serif" font-size="11" lengthAdjust="spacingAndGlyphs" textLength="82" x="77.5" y="534.0151">Airline : airline</text><text fill="#000000" font-family="sans-serif" font-size="11" lengthAdjust="spacingAndGlyphs" textLength="209" x="77.5" y="546.8198">ArrayList&lt;Passenger&gt; : passengers</text><line style="stroke: #A80036; stroke-width: 1.5;" x1="72.5" x2="385.5" y1="553.4141" y2="553.4141"/><text fill="#000000" font-family="sans-serif" font-size="11" lengthAdjust="spacingAndGlyphs" textLength="303" x="77.5" y="567.6245">canAddPassengers(ArrayList&lt;Passenger&gt;) : boolean</text><text fill="#000000" font-family="sans-serif" font-size="11" lengthAdjust="spacingAndGlyphs" textLength="226" x="77.5" y="580.4292">addPassengers(ArrayList&lt;Passenger&gt;)</text><!--class Passenger--><rect fill="#FEFECE" filter="url(#fkfw1yyf6d6kz)" height="60.8047" id="Passenger" style="stroke: #A80036; stroke-width: 1.5;" width="99" x="333.5" y="664"/><ellipse cx="348.5" cy="680" fill="#ADD1B2" rx="11" ry="11" style="stroke: #A80036; stroke-width: 1.0;"/><path d="M351.4688,685.6406 Q350.8906,685.9375 350.25,686.0859 Q349.6094,686.2344 348.9063,686.2344 Q346.4063,686.2344 345.0859,684.5859 Q343.7656,682.9375 343.7656,679.8125 Q343.7656,676.6875 345.0859,675.0313 Q346.4063,673.375 348.9063,673.375 Q349.6094,673.375 350.2578,673.5313 Q350.9063,673.6875 351.4688,673.9844 L351.4688,676.7031 Q350.8438,676.125 350.25,675.8516 Q349.6563,675.5781 349.0313,675.5781 Q347.6875,675.5781 347,676.6484 Q346.3125,677.7188 346.3125,679.8125 Q346.3125,681.9063 347,682.9766 Q347.6875,684.0469 349.0313,684.0469 Q349.6563,684.0469 350.25,683.7734 Q350.8438,683.5 351.4688,682.9219 L351.4688,685.6406 Z "/><text fill="#000000" font-family="sans-serif" font-size="12" lengthAdjust="spacingAndGlyphs" textLength="67" x="362.5" y="684.1543">Passenger</text><line style="stroke: #A80036; stroke-width: 1.5;" x1="334.5" x2="431.5" y1="696" y2="696"/><text fill="#000000" font-family="sans-serif" font-size="11" lengthAdjust="spacingAndGlyphs" textLength="78" x="339.5" y="710.2104">String : name</text><line style="stroke: #A80036; stroke-width: 1.5;" x1="334.5" x2="431.5" y1="716.8047" y2="716.8047"/><!--link Airport to Hangar--><path d="M105.4938,247.917 C103.9113,253.672 102.4038,259.387 101,265 C96.1247,284.494 92.1247,306.744 89.3435,324.121 " fill="none" id="Airport-Hangar" style="stroke: #A80036; stroke-width: 1.0;"/><polygon fill="#A80036" points="109.067,235.274,103.586,239.96,105.8034,246.8217,111.2844,242.1357,109.067,235.274" style="stroke: #A80036; stroke-width: 1.0;"/><text fill="#000000" font-family="sans-serif" font-size="13" lengthAdjust="spacingAndGlyphs" textLength="63" x="102" y="278.0669">has many</text><!--link Airport to Flight--><path d="M191.347,247.7 C199.543,270.837 207.558,293.466 214.073,311.858 " fill="none" id="Airport-Flight" style="stroke: #A80036; stroke-width: 1.0;"/><polygon fill="#FFFFFF" points="186.919,235.198,185.1515,242.1891,190.9251,246.5095,192.6926,239.5184,186.919,235.198" style="stroke: #A80036; stroke-width: 1.0;"/><text fill="#000000" font-family="sans-serif" font-size="13" lengthAdjust="spacingAndGlyphs" textLength="63" x="204" y="278.0669">has many</text><!--link Flight to Plane--><path d="M229,411.33 C229,431.597 229,454.52 229,474.777 " fill="none" id="Flight-Plane" style="stroke: #A80036; stroke-width: 1.0;"/><polygon fill="#FFFFFF" points="229,398.121,225,404.121,229,410.121,233,404.121,229,398.121" style="stroke: #A80036; stroke-width: 1.0;"/><text fill="#000000" font-family="sans-serif" font-size="13" lengthAdjust="spacingAndGlyphs" textLength="35" x="230" y="441.0669">has a</text><!--link Plane to Airline--><path d="M229,587.229 C229,645.569 229,735.873 229,785.7697 " fill="none" id="Plane-Airline" style="stroke: #A80036; stroke-width: 1.0; stroke-dasharray: 7.0,7.0;"/><text fill="#000000" font-family="sans-serif" font-size="13" lengthAdjust="spacingAndGlyphs" textLength="67" x="230" y="699.0669">belongs to</text><!--link Plane to Passenger--><path d="M290.636,596.638 C312.872,619.957 336.89,645.144 354.859,663.988 " fill="none" id="Plane-Passenger" style="stroke: #A80036; stroke-width: 1.0;"/><polygon fill="#FFFFFF" points="281.567,587.127,282.8127,594.2297,289.8481,595.8116,288.6024,588.7089,281.567,587.127" style="stroke: #A80036; stroke-width: 1.0;"/><text fill="#000000" font-family="sans-serif" font-size="13" lengthAdjust="spacingAndGlyphs" textLength="34" x="325" y="630.0669">holds</text><!--link Plane to AircraftType--><path d="M173.304,597.373 C168.044,603.935 162.864,610.554 158,617 C146.586,632.126 134.646,649.561 125.09,663.963 " fill="none" id="Plane-AircraftType" style="stroke: #A80036; stroke-width: 1.0;"/><polygon fill="#FFFFFF" points="181.602,587.143,174.7158,589.2832,174.0428,596.4628,180.929,594.3226,181.602,587.143" style="stroke: #A80036; stroke-width: 1.0;"/><text fill="#000000" font-family="sans-serif" font-size="13" lengthAdjust="spacingAndGlyphs" textLength="43" x="159" y="630.0669">has an</text><!--
@startuml
class Airport {
  String code
  String Name
  ArrayList<Hangar> hangars
  HashMap<Plane,Hangar>: planeAssignments
  HashMap<Passenger,Flight>: flightRoster
  ArrayList<Flight> : flights

  addHangar(hangar)
  addFlight(flight)
  sellFlight(flight,ArrayList<passenger> group)
  assignPlaneToHangar(plane, hangar)
  
  - assignPassengerToFlight(passenger, flight)
  - getHangarByName(string) : Hangar
  - getFlightByFlightNumber(string) : Flight
  
}

class Hangar {
  String: name
}

enum AircraftType {
  Int : capacity
}

class Airline {
  String : code
  String : name
}

class Flight {
  String : destination
  String : flightNumber
  Plane : plane
}

class Plane {
  AircraftType : type
  Airline : airline
  ArrayList<Passenger> : passengers
  canAddPassengers(ArrayList<Passenger>) : boolean
  addPassengers(ArrayList<Passenger>)
}

class Passenger {
  String : name
}

Airport *- - Hangar : has many
Airport o- - Flight : has many
Flight o- - Plane : has a
Plane ... Airline : belongs to
Plane o- - Passenger : holds
Plane o- - AircraftType : has an
@enduml

PlantUML version 1.2018.14(Fri Dec 21 16:33:16 UTC 2018)
(GPL source distribution)
Java Runtime: OpenJDK Runtime Environment
JVM: OpenJDK 64-Bit Server VM
Java Version: 1.8.0_181-8u181-b13-2~deb9u1-b13
Operating System: Linux
OS Version: 4.9.125-linuxkit
Default Encoding: UTF-8
Language: en
Country: null
--></g></svg>